<svg width="40" height="40" viewBox="0 0 40 40" fill="none" xmlns="http://www.w3.org/2000/svg">
<path d="M24.0501 31.3666C24.3668 31.3666 24.6834 31.25 24.9334 31L35.0501 20.8833C35.5334 20.4 35.5334 19.6 35.0501 19.1166L24.9334 8.99995C24.4501 8.51662 23.6501 8.51662 23.1668 8.99995C22.6834 9.48328 22.6834 10.2833 23.1668 10.7666L32.4001 20L23.1668 29.2333C22.6834 29.7166 22.6834 30.5166 23.1668 31C23.4001 31.25 23.7334 31.3666 24.0501 31.3666Z" fill="black"/>
<path d="M5.8333 21.25H33.8833C34.5666 21.25 35.1333 20.6833 35.1333 20C35.1333 19.3167 34.5666 18.75 33.8833 18.75H5.8333C5.14997 18.75 4.5833 19.3167 4.5833 20C4.5833 20.6833 5.14997 21.25 5.8333 21.25Z" fill="black"/>
</svg>
