<svg width="31" height="20" viewBox="0 0 31 20" fill="none" xmlns="http://www.w3.org/2000/svg">
<path d="M12.6523 9.26C12.6523 9.26 15.4177 9.05471 15.4177 5.81195C15.4177 2.56897 13.1553 0.986328 10.2895 0.986328H0.859253V19.1086H10.2895C10.2895 19.1086 16.0463 19.2904 16.0463 13.7597C16.0463 13.7598 16.2973 9.26 12.6523 9.26ZM9.61071 4.20736H10.2895C10.2895 4.20736 11.5713 4.20736 11.5713 6.0929C11.5713 7.97821 10.8175 8.25156 9.96239 8.25156H5.01433V4.20736H9.61071ZM10.023 15.8877H5.01433V11.0447H10.2895C10.2895 11.0447 12.2 11.0197 12.2 13.5335C12.2 15.6532 10.773 15.8717 10.023 15.8877ZM23.724 5.59717C16.7548 5.59717 16.7609 12.5603 16.7609 12.5603C16.7609 12.5603 16.2828 19.4877 23.724 19.4877C23.724 19.4877 29.925 19.8419 29.925 14.6687H26.7359C26.7359 14.6687 26.8423 16.6168 23.8304 16.6168C23.8304 16.6168 20.6408 16.8306 20.6408 13.464H30.0313C30.0313 13.4639 31.0588 5.59717 23.724 5.59717ZM20.6057 11.0447C20.6057 11.0447 20.9952 8.2515 23.7949 8.2515C26.594 8.2515 26.5589 11.0447 26.5589 11.0447H20.6057ZM27.3018 4.28559H19.825V2.05396H27.3018V4.28559Z" fill="#F1D047"/>
</svg>
