<svg width="21" height="21" viewBox="0 0 21 21" fill="none" xmlns="http://www.w3.org/2000/svg">
<path d="M-0.00012207 10.2396C-0.00012207 8.38283 0.457261 6.66942 1.37199 5.09933C2.28673 3.52925 3.52915 2.28686 5.09921 1.37211C6.66929 0.457363 8.38273 0 10.2395 0C12.0963 0 13.8097 0.457363 15.3798 1.37211C16.9499 2.28686 18.1923 3.52925 19.107 5.09933C20.0218 6.66942 20.4791 8.38283 20.4791 10.2396C20.4791 12.0964 20.0218 13.8098 19.107 15.3799C18.1923 16.95 16.9499 18.1924 15.3798 19.1071C13.8097 20.0219 12.0963 20.4792 10.2395 20.4792C8.38273 20.4792 6.66929 20.0219 5.09921 19.1071C3.52915 18.1924 2.28673 16.95 1.37199 15.3799C0.457261 13.8098 -0.00012207 12.0964 -0.00012207 10.2396ZM1.69966 10.2396C1.69966 12.3695 2.41643 14.2467 3.84998 15.8714C4.50531 14.588 5.54293 13.3661 6.96282 12.2056C8.38273 11.0451 9.76848 10.3147 11.1201 10.0144C10.9153 9.53651 10.7174 9.10645 10.5262 8.72416C8.17794 9.47507 5.63851 9.85052 2.90793 9.85052C2.37547 9.85052 1.97955 9.8437 1.72013 9.83004C1.72013 9.88466 1.71674 9.95292 1.7099 10.0348C1.70308 10.1167 1.69966 10.185 1.69966 10.2396ZM1.96589 8.13026C2.26625 8.15756 2.70998 8.17122 3.29704 8.17122C5.57707 8.17122 7.74103 7.86403 9.78896 7.24965C8.75136 5.40652 7.61134 3.87058 6.36892 2.64182C5.29036 3.18794 4.36538 3.94568 3.59399 4.91502C2.82261 5.88436 2.27991 6.95612 1.96589 8.13026ZM5.01729 16.9773C6.56008 18.1788 8.30081 18.7795 10.2395 18.7795C11.2498 18.7795 12.2533 18.5883 13.25 18.2061C12.9769 15.8714 12.4444 13.6119 11.6526 11.4274C10.3965 11.7005 9.13022 12.3899 7.85367 13.4958C6.57714 14.6017 5.63167 15.7622 5.01729 16.9773ZM8.15062 1.98649C9.35207 3.2289 10.4648 4.77848 11.4887 6.63528C13.3455 5.85707 14.7449 4.86724 15.687 3.66579C14.1033 2.35511 12.2874 1.69978 10.2395 1.69978C9.54321 1.69978 8.84691 1.79535 8.15062 1.98649ZM12.226 8.0893C12.4308 8.52619 12.6629 9.07913 12.9223 9.74812C13.9326 9.65255 15.0316 9.60477 16.2194 9.60477C17.0659 9.60477 17.9056 9.62525 18.7384 9.66621C18.6292 7.80941 17.9602 6.15743 16.7314 4.71023C15.844 6.03456 14.3422 7.16092 12.226 8.0893ZM13.4343 11.1817C14.1306 13.2023 14.6016 15.2775 14.8473 17.4074C15.9259 16.7111 16.8065 15.8168 17.4892 14.7246C18.1718 13.6324 18.5814 12.4514 18.7179 11.1817C17.7213 11.1134 16.8133 11.0793 15.9942 11.0793C15.2433 11.0793 14.39 11.1134 13.4343 11.1817Z" fill="#F1D047"/>
</svg>
