<svg width="22" height="21" viewBox="0 0 22 21" fill="none" xmlns="http://www.w3.org/2000/svg">
<path d="M0.505493 2.57541C0.505493 1.9031 0.740804 1.34845 1.21141 0.911471C1.68201 0.474471 2.29381 0.255981 3.04678 0.255981C3.78631 0.255981 4.38464 0.471103 4.84181 0.901387C5.31241 1.3451 5.54772 1.92327 5.54772 2.63591C5.54772 3.28132 5.31915 3.81914 4.86198 4.24943C4.39138 4.69314 3.77286 4.915 3.00644 4.915H2.98627C2.24674 4.915 1.64841 4.69314 1.19124 4.24943C0.734068 3.80571 0.505493 3.2477 0.505493 2.57541ZM0.767689 20.2232V6.75037H5.24519V20.2232H0.767689ZM7.72597 20.2232H12.2035V12.7002C12.2035 12.2296 12.2573 11.8665 12.3648 11.6111C12.5531 11.1539 12.8388 10.7673 13.222 10.4514C13.6052 10.1354 14.0859 9.9774 14.6641 9.9774C16.17 9.9774 16.923 10.9926 16.923 13.0229V20.2232H21.4005V12.4985C21.4005 10.5085 20.9299 8.99921 19.9887 7.97059C19.0474 6.94198 17.8037 6.42767 16.2574 6.42767C14.5229 6.42767 13.1716 7.17392 12.2035 8.66642V8.70676H12.1833L12.2035 8.66642V6.75037H7.72597C7.75285 7.18064 7.76631 8.5185 7.76631 10.764C7.76631 13.0095 7.75285 16.1625 7.72597 20.2232Z" fill="#F1D047"/>
</svg>
