<svg width="288" height="39" viewBox="0 0 288 39" fill="none" xmlns="http://www.w3.org/2000/svg">
<path fill-rule="evenodd" clip-rule="evenodd" d="M86.1575 25.4798C85.8591 29.4991 84.3325 32.6627 81.5776 34.9707C78.8401 37.2805 75.2247 38.4345 70.7333 38.4345C65.8204 38.4345 61.9509 36.8264 59.1267 33.6122C56.3179 30.3791 54.9145 25.9489 54.9145 20.3235V18.0399C54.9145 14.4484 55.5633 11.2829 56.8627 8.54713C58.1603 5.81133 60.0123 3.71539 62.4167 2.26305C64.8366 0.791948 67.6454 0.0563965 70.8392 0.0563965C75.2593 0.0563965 78.8227 1.21039 81.5237 3.51836C84.2266 5.82822 85.7879 9.06877 86.2095 13.2419H78.3126C78.1201 10.8307 77.427 9.08566 76.2334 8.0086C75.0591 6.91466 73.2591 6.36675 70.8392 6.36675C68.2056 6.36675 66.2324 7.28994 64.9156 9.1382C63.618 10.9677 62.9519 13.8142 62.9154 17.6796V20.5017C62.9154 24.5379 63.5391 27.4894 64.7847 29.3527C66.0475 31.2179 68.0304 32.1486 70.7333 32.1486C73.1725 32.1486 74.9879 31.61 76.1814 30.533C77.3924 29.439 78.0854 27.754 78.2606 25.4798H86.1575ZM23.3846 37.9203H31.2815V0.568559H23.4115V25.1964L8.01433 0.568559H0.117432V37.9203H8.01433V13.345L23.3846 37.9203ZM39.7563 37.9203H47.6513V0.568573H39.7563V37.9203ZM100.317 27.2492L104.421 22.9391L114.266 37.9203H123.661L109.659 17.1673L123.266 0.568573H113.554L103.79 12.8572L100.317 17.5013V0.568573H92.4197V37.9203H100.317V27.2492ZM150.771 21.7326H135.61V31.7394H153.402V37.9203H127.714V0.568573H153.35V6.80199H135.61V15.7055H150.771V21.7326ZM183.775 31.7394H167.009V0.568573H159.112V37.9203H183.775V31.7394ZM212.464 22.6576H197.303V37.9203H189.406V0.568573H214.358V6.80199H197.303V16.4486H212.464V22.6576ZM249.495 29.7636C250.828 26.9922 251.496 23.7685 251.496 20.0908V18.4245C251.496 14.7637 250.81 11.54 249.441 8.75354C248.09 5.94831 246.169 3.8017 243.678 2.31371C241.204 0.808835 238.37 0.0563965 235.176 0.0563965C231.982 0.0563965 229.141 0.808835 226.648 2.31371C224.174 3.8017 222.253 5.94831 220.884 8.75354C219.533 11.54 218.857 14.773 218.857 18.4489V20.2972C218.876 23.8886 219.569 27.0691 220.938 29.8406C222.305 32.5933 224.236 34.7136 226.727 36.2016C229.22 37.6896 232.054 38.4345 235.228 38.4345C238.439 38.4345 241.283 37.6821 243.757 36.1772C246.248 34.6723 248.161 32.5332 249.495 29.7636ZM243.493 18.3987C243.493 14.4826 242.775 11.5067 241.335 9.47076C239.897 7.43674 237.843 6.41785 235.176 6.41785C232.527 6.41785 230.483 7.42735 229.043 9.44637C227.605 11.4466 226.877 14.3888 226.86 18.2711V20.0912C226.86 23.9059 227.578 26.865 229.018 28.9685C230.456 31.0719 232.527 32.1246 235.228 32.1246C237.879 32.1246 239.914 31.1151 241.335 29.0961C242.758 27.0621 243.476 24.103 243.493 20.2207V18.3987ZM278.63 0.568573L271.444 13.4463L264.259 0.568573H255.178L266.338 19.0906L254.89 37.9203H264.074L271.444 24.838L278.813 37.9203H288L276.551 19.0906L287.711 0.568573H278.63Z" fill="white"/>
</svg>
